# AST/ASF file generated using VICON BodyLanguage
# -----------------------------------------------
:version 1.10
:name VICON
:units
  mass 1.0
  length 0.45
  angle deg
:documentation
   .ast/.asf automatically generated from VICON data using
   VICON BodyBuilder and BodyLanguage model FoxedUp or BRILLIANT.MOD
:root
   order TX TY TZ RX RY RZ
   axis XYZ
   position 0 0 0  
   orientation 0 0 0 
:bonedata
  begin
     id 1 
     name lhipjoint
     direction 0.693937 -0.600361 0.397515 
     length 2.37164 
     axis 0 0 0  XYZ
  end
  begin
     id 2 
     name lfemur
     direction 0.34202 -0.939693 0  
     length 6.18497  
     axis 0 0 20  XYZ
    dof rx ry rz
    limits (-160.0 20.0)
           (-70.0 70.0)
           (-60.0 70.0)
  end
  begin
     id 3 
     name ltibia
     direction 0.34202 -0.939693 0   
     length 6.91601   
     axis 0 0 20   XYZ
    dof rx
    limits (-10.0 170.0)
  end
  begin
     id 4 
     name lfoot
     direction 0.0978718 -0.2689 0.958182   
     length 1.81453   
     axis -90 7.62852e-016 20   XYZ
    dof rx rz
    limits (-45.0 90.0)
           (-70.0 20.0)
  end
  begin
     id 5 
     name ltoes
     direction 1.53569e-011 -4.21951e-011 1   
     length 0.912052   
     axis -90 7.62852e-016 20   XYZ
    dof rx
    limits (-90.0 20.0)
  end
  begin
     id 6 
     name rhipjoint
     direction -0.643996 -0.637876 0.422354   
     length 2.23216  
     axis 0 0 0  XYZ 
  end
  begin
     id 7 
     name rfemur
     direction -0.34202 -0.939693 0   
     length 6.15404   
     axis 0 0 -20   XYZ
    dof rx ry rz
    limits (-160.0 20.0)
           (-70.0 70.0)
           (-70.0 60.0)
  end
  begin
     id 8 
     name rtibia
     direction -0.34202 -0.939693 0   
     length 6.86744   
     axis 0 0 -20   XYZ
    dof rx
    limits (-10.0 170.0)
 end
 begin
     id 9 
     name rfoot
     direction -0.118701 -0.326127 0.937844   
     length 1.9243  
     axis -90 -7.62852e-016 -20   XYZ
    dof rx rz
    limits (-45.0 90.0)
           (-20.0 70.0)
  end
  begin
     id 10 
     name rtoes
     direction -1.5356e-011 -4.2181e-011 1   
     length 0.958865   
     axis -90 -7.62852e-016 -20   XYZ
    dof rx
    limits (-90.0 20.0)
  end
  begin
     id 11 
     name lowerback
     direction 0.0310826 0.968686 -0.246334   
     length 2.00021   
     axis 0 0 0   XYZ
    dof rx ry rz
    limits (-20.0 45.0)
           (-30.0 30.0)
           (-30.0 30.0)
  end
  begin
     id 12 
     name upperback
     direction -0.0152834 0.999474 -0.0286152   
     length 2.03728   
     axis 0 0 0   XYZ
    dof rx ry rz
    limits (-20.0 45.0)
           (-30.0 30.0)
           (-30.0 30.0)
  end
  begin
     id 13 
     name thorax
     direction -0.0323701 0.996236 0.0804149   
     length 2.16   
     axis 0 0 0   XYZ
    dof rx ry rz
    limits (-20.0 45.0)
           (-30.0 30.0)
           (-30.0 30.0)
  end
  begin
     id 14 
     name lowerneck
     direction 0.0307935 0.982251 0.185027   
     length 1.43558   
     axis 0 0 0   XYZ
    dof rx ry rz
    limits (-20.0 45.0)
           (-30.0 30.0)
           (-30.0 30.0)
  end
  begin
     id 15 
     name upperneck
     direction -0.0927153 0.994775 0.0427454   
     length 1.44603   
     axis 0 0 0   XYZ
    dof rx ry rz
    limits (-20.0 45.0)
           (-30.0 30.0)
           (-30.0 30.0)
  end
  begin
     id 16
     name head
     direction -0.0341265 0.999406 -0.00472033  
     length 1.45931  
     axis 0 0 0   XYZ
    dof rx ry rz
    limits (-20.0 45.0)
           (-30.0 30.0)
           (-30.0 30.0)
  end
  begin
     id 17 
     name lclavicle
     direction 0.820755 0.555306 -0.134151  
     length 2.66075  
     axis 0 0 0   XYZ
    dof ry rz
    limits (-20.0 10.0)
           (0.0 20.0)
  end
  begin
     id 18 
     name lhumerus
     direction 1 -4.48971e-011 5.24853e-027   
     length 5.0546   
     axis -180 -30 -90   XYZ
    dof rx ry rz
    limits (-60.0 90.0)
           (-90.0 90.0)
           (-90.0 90.0)
  end
  begin
     id 19
     name lradius
     direction 1 -4.48971e-011 2.76575e-028   
     length 3.39013   
     axis -180 -30 -90   XYZ
    dof rx
    limits (-10.0 170.0)
  end
  begin
     id 20
     name lwrist
     direction 1 -4.48939e-011 -2.27826e-027   
     length 1.69507   
     axis 2.17013e-015 90 90   XYZ
    dof ry
    limits (-180.0 0.0)
 end
  begin
     id 21 
     name lhand
     direction 1 -4.49009e-011 -4.55652e-027   
     length 0.572425   
     axis 2.90745e-015 90 90   XYZ
    dof rx rz
    limits (-90.0 90.0)
           (-45.0 45.0)
  end
  begin
     id 22 
     name lfingers
     direction 1 -4.48955e-011 -9.11303e-027   
     length 0.461504   
     axis 5.81489e-015 90 90   XYZ
    dof rx
    limits (0.0 90.0)
  end
  begin
     id 23
     name lthumb
     direction 0.707107 -6.34929e-011 0.707107   
     length 0.66263   
     axis -90 45 2.85299e-015   XYZ
    dof rx rz
    limits (-45.0 45.0)
           (-45.0 45.0)
  end
  begin
     id 24 
     name rclavicle
     direction -0.754477 0.632921 -0.173712   
     length 2.73081  
     axis 0 0 0   XYZ 
    dof ry rz
    limits (-10.0 20.0)
           (-20.0 0.0)
  end
  begin
     id 25 
     name rhumerus
     direction -1 -4.48969e-011 5.1496e-027  
     length 5.0701   
     axis -180 30 90   XYZ
    dof rx ry rz
    limits (-90.0 60.0)
           (-90.0 90.0)
           (-90.0 90.0)
  end
  begin
     id 26 
     name rradius
     direction -1 -4.48967e-011 -7.15624e-028   
     length 3.14957   
     axis -180 30 90   XYZ
    dof rx
    limits (-10.0 170.0)
  end
  begin
     id 27 
     name rwrist
     direction -1 -4.48938e-011 -2.27826e-027   
     length 1.57479   
     axis 2.17013e-015 -90 -90   XYZ
    dof ry
    limits (-180.0 0.0)
  end
  begin
     id 28
     name rhand
     direction -1 -4.49008e-011 -4.55652e-027   
     length 0.718191   
     axis 2.90745e-015 -90 -90   XYZ
    dof rx rz
    limits (-90.0 90.0)
           (-45.0 45.0)
  end
  begin
     id 29
     name rfingers
     direction -1 -4.48953e-011 -9.11303e-027   
     length 0.579024   
     axis 5.81489e-015 -90 -90   XYZ
    dof rx
    limits (0.0 90.0)
  end
  begin
     id 30
     name rthumb
     direction -0.707107 -6.34937e-011 0.707107   
     length 0.831366   
     axis -90 -45 -2.85299e-015   XYZ
    dof rx rz
    limits (-45.0 45.0)
           (-45.0 45.0)
  end
:hierarchy
  begin
    root lhipjoint rhipjoint lowerback
    lhipjoint lfemur
    lfemur ltibia
    ltibia lfoot
    lfoot ltoes
    rhipjoint rfemur
    rfemur rtibia
    rtibia rfoot
    rfoot rtoes
    lowerback upperback
    upperback thorax
    thorax lowerneck lclavicle rclavicle
    lowerneck upperneck
    upperneck head
    lclavicle lhumerus
    lhumerus lradius
    lradius lwrist
    lwrist lhand lthumb
    lhand lfingers
    rclavicle rhumerus
    rhumerus rradius
    rradius rwrist
    rwrist rhand rthumb
    rhand rfingers
  end

#!OML:ASF H:\Male1\Project 1\Capture day 1\Session 1\Male1.ASF
:FULLY-SPECIFIED
:DEGREES
27
root 7.52498 15.4947 -0.507015 175.042 -58.95 -177.126
lowerback 3.70969 1.01694 -2.69955
upperback 3.94477 1.18056 -1.42669
thorax 1.94828 0.48609 0.0217356
lowerneck 0.0808935 -5.24061 5.08196
upperneck 0.308979 -7.01036 0.570161
head -0.0750263 -3.51066 -0.636936
rclavicle -2.51463e-014 -1.74931e-014
rhumerus 13.8685 15.7406 -65.3604
rradius 135.804
rwrist -18.3831
rhand -35.7901 11.5925
rfingers 7.12502
rthumb -8.90726 -18.1995
lclavicle -2.51463e-014 -1.74931e-014
lhumerus -34.767 14.3597 77.0601
lradius 31.4792
lwrist -2.07308
lhand -18.8342 13.9296
lfingers 7.12502
lthumb 7.46523 43.7778
rfemur -4.46342 16.3009 23.1587
rtibia 22.5411
rfoot -40.8257 -33.4212
rtoes 3.67815
lfemur -3.62623 -14.7695 -21.2988
ltibia 25.0642
lfoot -32.7978 29.9933
ltoes 16.0716
28
root 7.52517 15.4941 -0.50646 175.103 -58.9323 -177.196
lowerback 3.71319 1.01327 -2.71952
upperback 3.93907 1.17501 -1.43587
thorax 1.94038 0.483044 0.0234904
lowerneck 0.109701 -5.25023 5.08418
upperneck 0.292311 -7.02149 0.59302
head -0.0842727 -3.51676 -0.629053
rclavicle 6.72886e-014 2.54444e-014
rhumerus 13.9906 15.8005 -65.3578
rradius 135.84
rwrist -18.4178
rhand -36.1143 11.6548
rfingers 7.12502
rthumb -9.2201 -18.1236
lclavicle 6.72886e-014 2.54444e-014
lhumerus -34.7945 14.3619 77.0464
lradius 31.5069
lwrist -2.11701
lhand -18.7977 13.961
lfingers 7.12502
lthumb 7.50041 43.808
rfemur -4.487 16.295 23.1197
rtibia 22.5751
rfoot -40.7857 -33.4408
rtoes 3.53831
lfemur -3.61297 -14.7763 -21.342
ltibia 25.0408
lfoot -32.8162 30.0049
ltoes 16.1346
29
root 7.52545 15.4935 -0.505898 175.179 -58.9241 -177.283
lowerback 3.71364 1.00977 -2.75302
upperback 3.93768 1.16939 -1.44642
thorax 1.93844 0.479462 0.0314638
lowerneck 0.141049 -5.2572 5.0787
upperneck 0.26397 -7.0286 0.615613
head -0.0971477 -3.52106 -0.619752
rclavicle -6.26172e-015 1.19271e-014
rhumerus 14.0447 15.8485 -65.3644
rradius 135.882
rwrist -18.414
rhand -36.4208 11.8872
rfingers 7.12502
rthumb -9.51581 -17.878
lclavicle -6.26172e-015 1.19271e-014
lhumerus -34.8042 14.3586 77.0396
lradius 31.5394
lwrist -2.12861
lhand -18.7915 13.977
lfingers 7.12502
lthumb 7.50643 43.8238
rfemur -4.50919 16.2747 23.0723
rtibia 22.6115
rfoot -40.7222 -33.4751
rtoes 3.29687
lfemur -3.60193 -14.7798 -21.3944
ltibia 25.0156
lfoot -32.8097 30.0134
ltoes 16.1941
30
root 7.52607 15.4933 -0.505414 175.235 -58.9175 -177.345
lowerback 3.71743 1.00888 -2.77941
upperback 3.93852 1.16725 -1.45239
thorax 1.93691 0.477702 0.0400629
lowerneck 0.175126 -5.26361 5.06956
upperneck 0.220542 -7.03434 0.632444
head -0.11514 -3.52493 -0.611285
rclavicle -7.06679e-014 1.03368e-014
rhumerus 14.0561 15.8769 -65.3841
rradius 135.943
rwrist -18.3635
rhand -36.6523 12.2042
rfingers 7.12502
rthumb -9.73919 -17.5507
lclavicle -7.06679e-014 1.03368e-014
lhumerus -34.7919 14.3359 77.0425
lradius 31.5679
lwrist -2.09868
lhand -18.8244 13.9648
lfingers 7.12502
lthumb 7.47463 43.8127
rfemur -4.52668 16.255 23.0409
rtibia 22.6382
rfoot -40.6495 -33.5203
rtoes 3.0212
lfemur -3.59842 -14.7701 -21.4289
ltibia 24.9967
lfoot -32.7736 30.0303
ltoes 16.1718
31
root 7.52686 15.4935 -0.505091 175.242 -58.9093 -177.353
lowerback 3.72545 1.01119 -2.7819
upperback 3.9418 1.16978 -1.45038
thorax 1.93566 0.478775 0.0433507
lowerneck 0.19584 -5.2713 5.06316
upperneck 0.175029 -7.04233 0.635931
head -0.132248 -3.52986 -0.607697
rclavicle 5.48646e-014 3.4191e-014
rhumerus 14.0576 15.8839 -65.418
rradius 136.034
rwrist -18.2718
rhand -36.778 12.518
rfingers 7.12502
rthumb -9.8605 -17.2311
lclavicle 5.48646e-014 3.4191e-014
lhumerus -34.76 14.2906 77.055
lradius 31.5916
lwrist -2.03873
lhand -18.8872 13.9173
lfingers 7.12502
lthumb 7.41407 43.7674
rfemur -4.5342 16.2545 23.0409
rtibia 22.6488
rfoot -40.6185 -33.5489
rtoes 2.87421
lfemur -3.60171 -14.7518 -21.4297
ltibia 24.9885
lfoot -32.7257 30.0591
ltoes 16.0519
32
root 7.52743 15.4939 -0.504966 175.222 -58.9018 -177.33
lowerback 3.73118 1.01431 -2.76807
upperback 3.94974 1.17388 -1.44477
thorax 1.9407 0.480857 0.0412569
lowerneck 0.188145 -5.27949 5.0638
upperneck 0.138836 -7.05269 0.622239
head -0.142839 -3.53562 -0.611501
rclavicle -7.89175e-014 -1.43125e-014
rhumerus 14.0702 15.8769 -65.4619
rradius 136.148
rwrist -18.1606
rhand -36.7992 12.7799
rfingers 7.12502
rthumb -9.88095 -16.9683
lclavicle -7.89175e-014 -1.43125e-014
lhumerus -34.7132 14.2308 77.0736
lradius 31.6149
lwrist -1.97068
lhand -18.9603 13.8529
lfingers 7.12502
lthumb 7.34349 43.7055
rfemur -4.53322 16.2662 23.0572
rtibia 22.6438
rfoot -40.6166 -33.5648
rtoes 2.84119
lfemur -3.60971 -14.7291 -21.4116
ltibia 24.9909
lfoot -32.6753 30.1011
ltoes 15.8247
33
root 7.52755 15.4945 -0.505096 175.202 -58.8988 -177.306
lowerback 3.7349 1.0139 -2.75744
upperback 3.95685 1.17334 -1.43733
thorax 1.94599 0.48056 0.0429521
lowerneck 0.16544 -5.28549 5.07118
upperneck 0.110347 -7.06097 0.58863
head -0.149599 -3.54006 -0.623096
rclavicle 4.07509e-014 1.19271e-014
rhumerus 14.0937 15.8784 -65.5082
rradius 136.276
rwrist -18.0554
rhand -36.7485 12.9627
rfingers 7.12502
rthumb -9.83198 -16.7877
lclavicle 4.07509e-014 1.19271e-014
lhumerus -34.6709 14.1706 77.0941
lradius 31.6464
lwrist -1.9136
lhand -19.0117 13.8182
lfingers 7.12502
lthumb 7.29381 43.6725
rfemur -4.52618 16.272 23.0706
rtibia 22.6295
rfoot -40.6274 -33.5611
rtoes 2.88922
lfemur -3.62018 -14.7078 -21.3945
ltibia 25.0011
lfoot -32.6215 30.1579
ltoes 15.5193
34
root 7.52729 15.4949 -0.505435 175.192 -58.902 -177.29
lowerback 3.72853 1.01129 -2.75077
upperback 3.96682 1.17022 -1.43127
thorax 1.9599 0.47876 0.0456738
lowerneck 0.134862 -5.29089 5.08504
upperneck 0.0810616 -7.06877 0.541804
head -0.156063 -3.5442 -0.64002
rclavicle -7.85199e-015 2.38542e-015
rhumerus 14.123 15.8899 -65.5469
rradius 136.408
rwrist -17.9699
rhand -36.669 13.0661
rfingers 7.12502
rthumb -9.75534 -16.688
lclavicle -7.85199e-015 2.38542e-015
lhumerus -34.6271 14.1096 77.1176
lradius 31.6858
lwrist -1.88155
lhand -19.0056 13.8457
lfingers 7.12502
lthumb 7.29972 43.6998
rfemur -4.51755 16.2672 23.0767
rtibia 22.613
rfoot -40.6428 -33.5428
rtoes 2.9706
lfemur -3.63285 -14.6924 -21.3833
ltibia 25.0157
lfoot -32.5734 30.2048
ltoes 15.2632
35
root 7.52675 15.495 -0.505849 175.183 -58.9104 -177.274
lowerback 3.718 1.00748 -2.74451
upperback 3.97639 1.16572 -1.4246
thorax 1.97574 0.476274 0.0493447
lowerneck 0.0963622 -5.29648 5.10548
upperneck 0.0577265 -7.07733 0.483278
head -0.160131 -3.54855 -0.661949
rclavicle 8.06072e-014 -1.98785e-014
rhumerus 14.1379 15.9118 -65.5697
rradius 136.528
rwrist -17.9088
rhand -36.5789 13.1181
rfingers 7.12502
rthumb -9.66833 -16.64
lclavicle 8.06072e-014 -1.98785e-014
lhumerus -34.585 14.058 77.1399
lradius 31.7255
lwrist -1.88709
lhand -18.9372 13.9201
lfingers 7.12502
lthumb 7.36575 43.7719
rfemur -4.51099 16.2477 23.0822
rtibia 22.5961
rfoot -40.6237 -33.5429
rtoes 2.95918
lfemur -3.64873 -14.6778 -21.3709
ltibia 25.0346
lfoot -32.5442 30.2103
ltoes 15.1446
36
root 7.52593 15.4948 -0.50627 175.162 -58.9204 -177.24
lowerback 3.7105 1.00728 -2.72325
upperback 3.98087 1.16636 -1.41883
thorax 1.9848 0.47695 0.0435212
lowerneck 0.0549024 -5.30896 5.13148
upperneck 0.0433482 -7.09546 0.419697
head -0.1616 -3.55751 -0.686524
rclavicle 4.91992e-014 3.18055e-014
rhumerus 14.115 15.9253 -65.5797
rradius 136.632
rwrist -17.863
rhand -36.4631 13.1443
rfingers 7.12502
rthumb -9.5566 -16.619
lclavicle 4.91992e-014 3.18055e-014
lhumerus -34.546 14.0084 77.157
lradius 31.7586
lwrist -1.92564
lhand -18.8253 14.0141
lfingers 7.12502
lthumb 7.47378 43.8621
rfemur -4.50227 16.2176 23.0984
rtibia 22.5742
rfoot -40.5765 -33.5556
rtoes 2.88138
lfemur -3.66846 -14.6673 -21.3481
ltibia 25.0615
lfoot -32.5517 30.1644
ltoes 15.2003
37
root 7.52501 15.4945 -0.506643 175.12 -58.9277 -177.18
lowerback 3.69538 1.01282 -2.68173
upperback 3.99028 1.1754 -1.41351
thorax 2.00341 0.482176 0.0259143
lowerneck 0.0106765 -5.33004 5.15379
upperneck 0.0240785 -7.12526 0.366378
head -0.163864 -3.57245 -0.707272
rclavicle -5.96354e-014 -7.95139e-015
rhumerus 14.0699 15.9071 -65.5762
rradius 136.721
rwrist -17.8221
rhand -36.3046 13.1809
rfingers 7.12502
rthumb -9.40374 -16.5894
lclavicle -5.96354e-014 -7.95139e-015
lhumerus -34.4892 13.9587 77.1743
lradius 31.7796
lwrist -1.9706
lhand -18.6992 14.1134
lfingers 7.12502
lthumb 7.59553 43.9571
rfemur -4.48781 16.1985 23.1322
rtibia 22.5421
rfoot -40.5365 -33.5702
rtoes 2.82155
lfemur -3.69394 -14.6633 -21.3101
ltibia 25.0988
lfoot -32.5976 30.0786
ltoes 15.4069
38
root 7.52413 15.4943 -0.506886 175.056 -58.9295 -177.093
lowerback 3.69334 1.02226 -2.6254
upperback 3.99234 1.18949 -1.40591
thorax 2.00726 0.490593 0.00202093
lowerneck -0.023608 -5.35692 5.16459
upperneck 0.00376789 -7.16236 0.330049
head -0.167178 -3.59114 -0.720563
rclavicle -2.98177e-015 0
rhumerus 13.9872 15.8644 -65.5659
rradius 136.8
rwrist -17.7813
rhand -36.1105 13.2754
rfingers 7.12502
rthumb -9.21648 -16.5032
lclavicle -2.98177e-015 0
lhumerus -34.4343 13.905 77.1901
lradius 31.7891
lwrist -1.99022
lhand -18.6015 14.1943
lfingers 7.12502
lthumb 7.68977 44.0345
rfemur -4.46783 16.1981 23.1838
rtibia 22.4997
rfoot -40.5127 -33.589
rtoes 2.79912
lfemur -3.72384 -14.6594 -21.2564
ltibia 25.1439
lfoot -32.6579 29.9832
ltoes 15.6363
39
root 7.523 15.4943 -0.506939 174.98 -58.9277 -176.995
lowerback 3.69624 1.03297 -2.55923
upperback 3.99271 1.20528 -1.3992
thorax 2.00679 0.500197 -0.0284147
lowerneck -0.0557422 -5.38689 5.1698
upperneck -0.0186529 -7.20356 0.307101
head -0.170868 -3.61199 -0.728703
rclavicle -3.69739e-014 2.06736e-014
rhumerus 13.8625 15.799 -65.5543
rradius 136.864
rwrist -17.7423
rhand -35.9081 13.4704
rfingers 7.12502
rthumb -9.02112 -16.3167
lclavicle -3.69739e-014 2.06736e-014
lhumerus -34.3767 13.845 77.206
lradius 31.79
lwrist -1.97263
lhand -18.5601 14.2347
lfingers 7.12502
lthumb 7.72972 44.0734
rfemur -4.44487 16.2079 23.2411
rtibia 22.4532
rfoot -40.5117 -33.5997
rtoes 2.83751
lfemur -3.75268 -14.6579 -21.1983
ltibia 25.1897
lfoot -32.7193 29.9065
ltoes 15.7874
40
root 7.52131 15.4944 -0.506837 174.922 -58.9259 -176.918
lowerback 3.69789 1.04066 -2.50374
upperback 3.99222 1.21685 -1.39591
thorax 2.00611 0.507452 -0.0562926
lowerneck -0.0863825 -5.41482 5.17292
upperneck -0.0415094 -7.242 0.286645
head -0.174705 -3.63149 -0.735707
rclavicle 1.35174e-014 1.59028e-015
rhumerus 13.7266 15.7204 -65.5489
rradius 136.932
rwrist -17.7175
rhand -35.7115 13.7239
rfingers 7.12502
rthumb -8.83137 -16.0713
lclavicle 1.35174e-014 1.59028e-015
lhumerus -34.3283 13.7899 77.22
lradius 31.7892
lwrist -1.92909
lhand -18.5747 14.2359
lfingers 7.12502
lthumb 7.71571 44.0751
rfemur -4.42293 16.2195 23.2821
rtibia 22.4106
rfoot -40.5217 -33.6052
rtoes 2.90075
lfemur -3.77521 -14.6592 -21.1577
ltibia 25.2291
lfoot -32.77 29.8692
ltoes 15.7968
